<?xml version="1.0" encoding="UTF-8" standalone="no"?>
<!-- Created with Inkscape (http://www.inkscape.org/) -->

<svg
   xmlns:dc="http://purl.org/dc/elements/1.1/"
   xmlns:cc="http://creativecommons.org/ns#"
   xmlns:rdf="http://www.w3.org/1999/02/22-rdf-syntax-ns#"
   xmlns:svg="http://www.w3.org/2000/svg"
   xmlns="http://www.w3.org/2000/svg"
   xmlns:sodipodi="http://sodipodi.sourceforge.net/DTD/sodipodi-0.dtd"
   xmlns:inkscape="http://www.inkscape.org/namespaces/inkscape"
   width="38.679756"
   height="50.054703"
   viewBox="0 0 10.234018 13.24364"
   version="1.1"
   id="svg508"
   sodipodi:docname="ICON_Ared.svg"
   inkscape:version="0.92.5 (2060ec1f9f, 2020-04-08)">
  <defs
     id="defs502" />
  <sodipodi:namedview
     id="base"
     pagecolor="#ffffff"
     bordercolor="#666666"
     borderopacity="1.0"
     inkscape:pageopacity="0.0"
     inkscape:pageshadow="2"
     inkscape:zoom="5.6568543"
     inkscape:cx="-28.798698"
     inkscape:cy="25.241303"
     inkscape:document-units="mm"
     inkscape:current-layer="layer1"
     showgrid="false"
     units="px"
     showguides="true"
     inkscape:guide-bbox="true"
     inkscape:window-width="1920"
     inkscape:window-height="1018"
     inkscape:window-x="0"
     inkscape:window-y="31"
     inkscape:window-maximized="1">
    <sodipodi:guide
       position="6.5484372,6.6807289"
       orientation="1,0"
       id="guide582"
       inkscape:locked="false" />
    <sodipodi:guide
       position="8.1254787,1.8503027"
       orientation="0,1"
       id="guide628"
       inkscape:locked="false" />
  </sodipodi:namedview>
  <metadata
     id="metadata505">
    <rdf:RDF>
      <cc:Work
         rdf:about="">
        <dc:format>image/svg+xml</dc:format>
        <dc:type
           rdf:resource="http://purl.org/dc/dcmitype/StillImage" />
        <dc:title></dc:title>
      </cc:Work>
    </rdf:RDF>
  </metadata>
  <g
     inkscape:label="Layer 1"
     inkscape:groupmode="layer"
     id="layer1"
     transform="translate(0.0405762,-283.80258)"
     style="opacity:1">
    <path
       style="opacity:1;fill:#008080;stroke-width:0.10820195"
       d="m 0.00852358,283.82834 v 13.24311 H 10.242524 v -13.24311 z m 4.21783042,1.75648 h 0.020154 1.7590659 0.020154 c 0.2345471,0 0.458674,0.0377 0.6728272,0.11317 0.2116947,0.0747 0.4134025,0.18691 0.6051309,0.33538 0.00148,0.002 0.00317,0.002 0.00465,0.003 0.00148,5e-5 0.00161,5.5e-4 0.00258,0.001 0.088485,0.0689 0.1637951,0.14263 0.2320272,0.21963 0.00577,0.007 0.014721,0.0126 0.020671,0.0196 3.699e-4,1e-5 6.927e-4,6.1e-4 0.00103,0.001 0.2170078,0.25552 0.3250448,0.55515 0.3250448,0.89814 v 6.50399 c 0,0.45828 -0.1933159,0.83614 -0.5808432,1.13326 -0.2471129,0.19199 -0.5155231,0.31503 -0.8009845,0.38293 v -4.27158 h -0.0031 v -0.0103 H 3.7467967 v 0.0103 h -0.0031 v 4.27158 c -0.2854468,-0.0679 -0.5533551,-0.19094 -0.800468,-0.38293 -0.3875273,-0.29712 -0.5813598,-0.67498 -0.5813598,-1.13326 v -6.50399 c 0,-0.34299 0.1080069,-0.64262 0.3250447,-0.89814 3e-4,0 0.00111,-5.1e-4 0.00155,-0.001 0.00592,-0.007 0.014751,-0.0126 0.020671,-0.0196 0.068231,-0.077 0.1431504,-0.15083 0.2315104,-0.21963 0.00163,0 0.00236,-4.5e-4 0.0031,-0.001 0.00148,-0.002 0.00317,-0.002 0.00465,-0.003 0.1917584,-0.14847 0.3929346,-0.26058 0.6046145,-0.33538 0.2141664,-0.0756 0.4387805,-0.11317 0.6733445,-0.11317 z"
       id="rect308-4-70-2-4-9"
       inkscape:connector-curvature="0" />
    <path
       inkscape:connector-curvature="0"
       id="flowRoot56-9-9-4-9-62-0"
       d="m 4.9958933,286.74951 h 0.2554619 v 9.8e-4 h 0.6776495 c 0.1491468,0 0.2682793,0.0357 0.3571872,0.10658 0.03049,0.024 0.057575,0.0516 0.081108,0.0839 0.091765,0.12586 0.1376468,0.2795 0.1376468,0.4608 v 2.33418 h -0.00296 -2.7603342 v -2.33418 c 0,-0.1813 0.045882,-0.3349 0.1376467,-0.4608 0.023533,-0.0322 0.050618,-0.06 0.081108,-0.0839 0.088952,-0.0709 0.208039,-0.10658 0.3571858,-0.10658 h 0.677651 z"
       style="font-style:normal;font-variant:normal;font-weight:normal;font-stretch:normal;font-size:40px;line-height:1.25;font-family:Uroob;-inkscape-font-specification:'Uroob, Normal';font-variant-ligatures:normal;font-variant-caps:normal;font-variant-numeric:normal;font-feature-settings:normal;text-align:start;letter-spacing:0px;word-spacing:0px;writing-mode:lr-tb;text-anchor:start;opacity:1;fill:#d40055;fill-opacity:1;stroke:none;stroke-width:0.38917571" />
  </g>
</svg>
